<?xml version="1.0" standalone="no"?>
<!DOCTYPE svg PUBLIC "-//W3C//DTD SVG 20010904//EN"
 "http://www.w3.org/TR/2001/REC-SVG-20010904/DTD/svg10.dtd">
<svg version="1.0" xmlns="http://www.w3.org/2000/svg"
 width="296.000000pt" height="267.000000pt" viewBox="0 0 296.000000 267.000000"
 preserveAspectRatio="xMidYMid meet">

<g transform="translate(0.000000,267.000000) scale(0.100000,-0.100000)"
fill="#000000" stroke="none">
<path d="M1605 2173 c-359 -31 -643 -240 -770 -564 -39 -98 -56 -202 -56 -329
0 -141 23 -237 86 -367 l44 -93 -192 -1 c-112 -1 -182 -4 -167 -9 40 -13 650
-12 650 1 0 6 -5 20 -11 31 -9 16 -8 19 2 13 8 -6 11 -4 6 7 -3 10 3 20 19 29
14 7 22 19 20 26 -3 7 0 13 7 13 8 0 7 4 -3 10 -13 8 -11 11 7 16 13 4 20 10
17 15 -3 5 2 6 10 3 9 -3 16 -9 16 -13 0 -3 11 -7 25 -7 28 -2 32 8 10 30 -8
8 -15 32 -15 53 0 22 -5 44 -10 49 -8 8 -7 25 2 58 10 38 10 51 -1 67 -16 26
-9 33 25 25 19 -5 25 -12 21 -25 -3 -14 0 -17 13 -14 10 3 21 0 24 -6 4 -6 0
-11 -9 -11 -9 0 -13 -4 -10 -10 3 -5 13 -10 21 -10 11 0 14 8 12 28 -2 20 -8
26 -23 25 -18 -2 -17 -1 3 9 27 14 24 32 -6 36 -12 2 -20 8 -17 13 4 5 2 9 -4
9 -5 0 -14 -8 -20 -17 -5 -10 -13 -14 -17 -10 -4 4 2 16 13 27 12 10 24 16 27
13 3 -4 6 4 6 16 0 17 4 21 15 17 12 -4 14 0 9 22 -4 21 -3 24 5 12 8 -11 11
16 11 101 l0 116 35 24 c31 21 60 67 55 85 -1 4 4 10 12 15 8 6 13 27 12 64
-3 122 -121 206 -241 170 -146 -43 -179 -231 -60 -332 l34 -28 7 -286 6 -286
-39 -26 c-40 -26 -81 -95 -81 -135 0 -21 -4 -22 -94 -22 l-94 0 -32 56 c-17
31 -45 97 -63 147 -30 89 -31 97 -31 262 -1 165 0 173 32 265 90 267 274 450
547 546 76 27 89 28 270 30 109 0 193 -3 196 -8 3 -5 42 -22 85 -38 43 -15 87
-31 97 -35 13 -5 17 -2 17 13 0 30 -173 94 -290 107 -94 10 -134 12 -175 8z
m-245 -387 c31 -38 -9 -89 -54 -68 -45 20 -30 82 20 82 12 0 27 -7 34 -14z m7
-428 c-3 -8 -6 -5 -6 6 -1 11 2 17 5 13 3 -3 4 -12 1 -19z"/>
<path d="M2080 2040 c0 -11 7 -20 15 -20 8 0 15 -4 15 -9 0 -5 14 -14 30 -21
17 -7 30 -17 30 -23 0 -6 3 -8 6 -5 6 6 120 -113 172 -179 76 -97 140 -267
150 -400 15 -190 -18 -359 -98 -505 l-32 -58 -414 0 c-269 0 -414 -3 -414 -10
0 -7 147 -10 420 -10 303 0 420 3 420 11 0 6 9 9 20 6 17 -4 18 -2 9 15 -8 15
-8 23 1 32 8 8 10 6 5 -9 -15 -48 25 20 55 92 110 264 92 548 -50 790 -14 24
-30 43 -37 43 -7 0 -10 7 -6 17 4 11 3 14 -5 9 -8 -4 -12 0 -12 12 0 23 -45
67 -59 57 -7 -3 -11 2 -11 14 0 24 -58 80 -138 134 -65 43 -72 44 -72 17z
m258 -205 c-3 -3 -9 2 -12 12 -6 14 -5 15 5 6 7 -7 10 -15 7 -18z"/>
<path d="M2006 1846 c-47 -18 -94 -60 -112 -103 -16 -36 -19 -99 -5 -107 5 -3
9 -17 9 -30 0 -26 37 -86 53 -86 7 0 8 12 4 31 -6 24 -4 30 6 24 9 -6 11 -3 6
9 -4 10 -10 44 -12 75 -5 49 -3 61 17 86 18 23 19 28 5 22 -9 -3 -17 -2 -17 3
0 6 7 10 15 10 8 0 15 7 15 15 0 13 6 17 26 14 4 0 11 5 15 13 5 8 6 -1 3 -22
-4 -19 -11 -41 -17 -47 -11 -15 8 -43 29 -43 17 0 18 27 2 33 -10 4 -10 8 1
15 9 7 10 12 2 16 -13 9 -15 26 -2 26 5 0 17 -7 26 -16 9 -9 19 -13 23 -10 3
4 0 11 -7 15 -7 5 -10 14 -7 20 4 6 12 8 18 5 6 -4 14 0 19 7 7 12 9 11 9 -1
0 -9 9 -34 21 -55 12 -22 24 -53 29 -70 4 -16 11 -38 15 -47 5 -13 2 -15 -12
-12 -40 10 -53 -20 -37 -93 9 -46 25 -41 18 5 -3 20 -7 39 -9 42 -2 3 0 12 5
20 14 22 24 3 25 -45 0 -34 3 -41 13 -32 22 17 43 65 31 69 -5 2 -12 35 -14
73 -3 67 -4 71 -34 84 -18 8 -30 20 -27 27 2 6 -1 17 -7 23 -8 8 -7 11 5 11 9
0 19 -6 21 -12 4 -10 6 -10 6 -1 1 13 -28 32 -57 38 -61 13 -81 13 -116 1z
m-81 -206 c3 -5 1 -10 -4 -10 -6 0 -11 5 -11 10 0 6 2 10 4 10 3 0 8 -4 11
-10z m295 -51 c0 -6 -4 -7 -10 -4 -5 3 -10 11 -10 16 0 6 5 7 10 4 6 -3 10
-11 10 -16z"/>
<path d="M2106 1763 c-4 -9 -2 -21 4 -27 7 -7 10 -2 10 17 0 31 -5 34 -14 10z"/>
<path d="M2200 1770 c0 -5 5 -10 10 -10 6 0 10 5 10 10 0 6 -4 10 -10 10 -5 0
-10 -4 -10 -10z"/>
<path d="M2105 1693 c9 -9 14 -21 11 -28 -3 -8 2 -16 11 -19 11 -5 13 -2 8 11
-4 10 -7 25 -7 33 0 9 -8 17 -19 17 -17 2 -18 0 -4 -14z"/>
<path d="M2140 1698 c0 -18 18 -34 28 -24 3 4 -2 14 -11 23 -16 16 -17 16 -17
1z"/>
<path d="M2220 1690 c0 -5 5 -10 10 -10 6 0 10 5 10 10 0 6 -4 10 -10 10 -5 0
-10 -4 -10 -10z"/>
<path d="M1992 1666 c3 -4 4 -14 1 -22 -2 -7 5 -19 16 -26 12 -7 21 -19 21
-27 0 -12 3 -12 18 1 9 9 22 14 28 11 6 -2 14 4 18 13 5 13 4 14 -7 6 -15 -13
-56 5 -85 35 -9 10 -14 14 -10 9z"/>
<path d="M2231 1653 c7 -10 15 -20 16 -22 2 -2 3 3 3 11 0 9 -7 19 -16 22 -15
6 -15 4 -3 -11z"/>
<path d="M1981 1583 c-7 -26 -7 -41 1 -50 6 -7 6 -13 1 -13 -4 0 -8 -26 -8
-57 2 -95 -29 -131 -121 -140 -52 -6 -62 -11 -46 -27 4 -4 7 -20 7 -36 0 -15
-3 -26 -7 -23 -5 2 -8 -1 -8 -6 0 -6 8 -11 18 -12 10 0 12 -3 5 -6 -25 -10
-14 -33 16 -33 36 0 48 15 24 30 -17 11 -17 11 0 6 10 -3 21 -6 23 -6 2 0 4
-7 4 -15 0 -17 6 -18 35 -5 11 5 14 9 7 9 -7 1 -11 5 -8 10 3 4 17 6 31 3 31
-5 32 9 3 27 -23 14 -35 13 -30 -2 1 -5 -2 -6 -8 -2 -17 10 -12 48 5 41 8 -3
15 -1 15 4 0 6 -9 10 -21 10 -11 0 -18 4 -15 8 3 5 18 7 34 4 33 -4 50 21 31
45 -9 11 -8 17 7 28 17 12 20 11 25 -14 7 -33 49 -92 60 -85 5 2 5 12 2 21 -5
12 -3 14 8 8 12 -8 12 -6 0 8 -7 9 -10 17 -5 17 4 0 3 5 -4 12 -15 15 -16 32
-2 23 6 -3 10 -4 10 -1 0 3 -9 10 -21 17 -19 10 -20 9 -14 -11 5 -15 4 -20 -4
-16 -17 11 -13 44 6 48 15 3 15 5 -2 22 -35 35 -46 64 -29 80 16 17 19 36 5
36 -6 0 -8 16 -7 35 5 48 -11 54 -23 8z m-89 -340 c-5 -26 -12 -29 -30 -11
-19 19 -14 36 11 34 18 -1 22 -6 19 -23z"/>
<path d="M2050 1550 c0 -5 9 -24 19 -41 11 -17 17 -37 15 -44 -3 -7 -1 -15 3
-18 13 -8 9 33 -7 76 -13 34 -30 50 -30 27z"/>
<path d="M2046 1465 c8 -37 24 -57 24 -29 0 10 -8 28 -16 39 -15 19 -15 19 -8
-10z"/>
<path d="M1754 1312 c-7 -4 -8 -15 -3 -29 10 -28 29 -30 22 -3 -3 11 0 20 6
20 6 0 11 5 11 10 0 12 -20 13 -36 2z"/>
<path d="M1990 1308 c0 -9 5 -20 10 -23 13 -8 13 5 0 25 -8 13 -10 13 -10 -2z"/>
<path d="M1605 1301 c3 -6 -8 -8 -28 -4 -19 3 -46 -1 -67 -11 -19 -9 -27 -14
-18 -12 9 3 34 0 54 -6 28 -7 39 -7 42 1 3 9 7 9 17 1 10 -8 19 -9 32 -1 10 6
12 11 6 11 -7 0 -13 7 -13 15 0 8 -7 15 -16 15 -8 0 -13 -4 -9 -9z"/>
<path d="M1655 1301 c-2 -2 0 -12 6 -22 10 -20 39 -26 39 -9 0 6 -4 10 -10 10
-17 0 -11 18 8 23 9 3 4 4 -11 4 -15 -1 -30 -3 -32 -6z"/>
<path d="M1443 1259 c-23 -8 -32 -39 -13 -39 6 0 10 5 10 11 0 6 7 9 15 6 17
-7 31 11 19 23 -5 4 -19 4 -31 -1z"/>
<path d="M1680 1238 c0 -11 -6 -14 -20 -11 -11 3 -20 0 -20 -6 0 -17 40 -13
47 4 3 9 3 19 -1 22 -3 4 -6 -1 -6 -9z"/>
<path d="M1586 1184 c-8 -21 -6 -23 17 -15 17 6 17 9 4 19 -12 10 -16 9 -21
-4z"/>
<path d="M1416 1163 c-4 -9 -3 -20 1 -24 4 -4 9 3 9 17 2 28 -1 31 -10 7z"/>
<path d="M1270 906 c0 -8 -6 -16 -12 -19 -7 -3 -4 -5 8 -4 15 1 20 6 16 19 -5
22 -12 24 -12 4z"/>
<path d="M1225 845 l0 -45 60 0 c65 0 67 19 2 22 -20 1 -35 4 -34 7 0 3 -6 19
-14 34 l-15 28 1 -46z"/>
<path d="M1477 873 c-8 -13 3 -53 14 -53 11 0 11 31 0 49 -5 7 -11 9 -14 4z"/>
<path d="M1374 818 c-15 -19 -16 -20 -1 -9 11 9 17 10 17 2 0 -6 10 -11 23
-10 l22 0 -23 10 c-13 5 -20 13 -17 19 11 18 -1 11 -21 -12z"/>
<path d="M2480 810 c0 -12 266 -12 295 0 12 5 -40 9 -137 9 -99 1 -158 -3
-158 -9z"/>
<path d="M825 584 c-20 -20 -16 -33 16 -53 l24 -15 -19 21 c-26 31 -14 56 24
51 16 -2 27 -1 24 4 -9 14 -52 9 -69 -8z"/>
<path d="M945 590 c-3 -5 -5 -27 -4 -48 3 -36 5 -38 28 -33 25 5 25 6 4 9 -18
3 -23 10 -23 33 0 34 19 46 49 29 24 -12 27 -39 9 -60 -11 -12 -10 -12 5 -1
23 18 22 58 -2 71 -25 13 -58 13 -66 0z"/>
<path d="M1070 525 l0 -75 43 2 42 1 -37 4 c-34 4 -38 7 -38 33 0 25 4 29 33
33 l32 4 -33 1 c-30 2 -33 5 -30 30 2 22 9 28 38 33 l35 6 -42 2 -43 1 0 -75z"/>
<path d="M1200 580 c-26 -26 -27 -90 -2 -113 19 -17 82 -24 82 -9 0 5 -13 7
-29 4 -32 -4 -61 26 -61 65 0 32 36 66 61 58 11 -4 19 -2 19 4 0 19 -49 12
-70 -9z"/>
<path d="M1300 590 c0 -5 9 -10 20 -10 18 0 20 -7 20 -65 0 -37 4 -65 10 -65
6 0 10 28 10 65 0 58 2 65 20 65 11 0 20 5 20 10 0 6 -22 10 -50 10 -27 0 -50
-4 -50 -10z"/>
<path d="M1437 593 c-11 -10 -8 -143 3 -143 6 0 10 16 10 36 0 29 3 35 16 30
9 -3 17 -6 20 -6 2 0 11 -14 19 -31 9 -17 19 -28 23 -25 3 4 -4 19 -16 35 -18
25 -19 31 -7 41 21 17 19 47 -4 60 -22 11 -54 13 -64 3z m58 -17 c25 -18 13
-46 -20 -46 -21 0 -25 5 -25 30 0 33 15 38 45 16z"/>
<path d="M1596 566 c-9 -22 -15 -41 -12 -43 2 -2 9 10 16 28 l13 31 13 -24 c9
-15 13 -18 14 -7 0 8 -6 24 -14 34 -13 18 -15 17 -30 -19z"/>
<path d="M1782 588 c-22 -22 -13 -48 22 -63 19 -8 38 -19 41 -25 12 -19 -17
-42 -46 -38 -16 3 -26 1 -23 -4 9 -14 52 -9 68 8 26 25 18 42 -31 68 -18 9
-33 20 -33 25 0 19 31 33 57 27 21 -5 24 -4 13 4 -20 13 -53 13 -68 -2z"/>
<path d="M1900 543 c0 -32 4 -53 8 -47 4 7 16 14 27 17 18 4 18 5 -2 6 -19 1
-23 7 -23 31 0 38 22 48 55 26 19 -13 23 -13 19 -2 -5 14 -35 26 -66 26 -15 0
-18 -9 -18 -57z"/>
<path d="M2022 570 c1 -16 6 -30 10 -30 4 0 8 14 8 30 0 17 -5 30 -10 30 -6 0
-9 -13 -8 -30z"/>
<path d="M2121 584 c0 -11 3 -14 6 -6 3 7 2 16 -1 19 -3 4 -6 -2 -5 -13z"/>
<path d="M2181 578 c1 -16 3 -18 6 -6 2 10 17 18 36 21 31 4 31 4 -5 5 -34 2
-38 -1 -37 -20z"/>
<path d="M2305 589 c-11 -16 -1 -19 13 -3 7 8 8 14 3 14 -5 0 -13 -5 -16 -11z"/>
<path d="M2431 578 c0 -16 2 -18 6 -8 3 8 11 18 17 22 7 5 4 8 -6 8 -12 0 -18
-7 -17 -22z"/>
<path d="M2478 593 c6 -2 18 -2 25 0 6 3 1 5 -13 5 -14 0 -19 -2 -12 -5z"/>
<path d="M1977 543 c-4 -3 -7 -11 -7 -17 0 -6 5 -5 12 2 6 6 9 14 7 17 -3 3
-9 2 -12 -2z"/>
<path d="M879 507 c23 -29 6 -50 -34 -44 -21 3 -33 2 -30 -4 9 -14 61 -11 75
6 15 18 10 47 -10 53 -13 5 -13 3 -1 -11z"/>
<path d="M1577 499 c7 -7 15 -10 18 -7 3 3 -2 9 -12 12 -14 6 -15 5 -6 -5z"/>
<path d="M942 470 c0 -14 2 -19 5 -12 2 6 2 18 0 25 -3 6 -5 1 -5 -13z"/>
<path d="M2026 474 c-4 -9 -4 -19 -1 -22 2 -3 7 3 11 12 4 9 4 19 1 22 -2 3
-7 -3 -11 -12z"/>
<path d="M1043 233 c9 -2 23 -2 30 0 6 3 -1 5 -18 5 -16 0 -22 -2 -12 -5z"/>
<path d="M1368 233 c155 -2 409 -2 565 0 155 1 28 2 -283 2 -311 0 -438 -1
-282 -2z"/>
</g>
</svg>
